<?xml version="1.0" encoding="UTF-8" standalone="no"?> <svg xmlns="http://www.w3.org/2000/svg" viewBox="0 0 42.67 40.31"><defs><style>.cls-1{fill:none;stroke:#333;stroke-linecap:round;stroke-linejoin:round;stroke-width:2px;}</style></defs><title>Asset 13</title><g id="Layer_2" data-name="Layer 2"><g id="Layer_2-2" data-name="Layer 2"><path class="cls-1" d="M4.85,19.06A7.2,7.2,0,0,0,15,8.88C12.61,6.46,3.9,5.31,1.54,5A.48.48,0,0,0,1,5.57C1.28,7.93,2.43,16.64,4.85,19.06Z"/><line class="cls-1" x1="7.26" y1="11.45" x2="18.74" y2="22.94"/><path class="cls-1" d="M22.81,6.18A9.67,9.67,0,0,0,36.49,19.86c3.26-3.25,4.81-15,5.17-18.14A.65.65,0,0,0,41,1C37.77,1.37,26.06,2.92,22.81,6.18Z"/><line class="cls-1" x1="33.03" y1="9.42" x2="18.74" y2="22.94"/><line class="cls-1" x1="18.75" y1="31.28" x2="18.75" y2="22.28"/><path class="cls-1" d="M35.75,39.31l-6.44-4.14a20.23,20.23,0,0,0-21.87,0L1,39.31"/></g></g></svg>